<?xml version="1.0" standalone="no"?>
<!DOCTYPE svg PUBLIC "-//W3C//DTD SVG 20010904//EN"
 "http://www.w3.org/TR/2001/REC-SVG-20010904/DTD/svg10.dtd">
<svg version="1.0" xmlns="http://www.w3.org/2000/svg"
 width="275.000000pt" height="275.000000pt" viewBox="0 0 275.000000 275.000000"
 preserveAspectRatio="xMidYMid meet">
<metadata>
Created by potrace 1.14, written by Peter Selinger 2001-2017
</metadata>
<g transform="translate(0.000000,275.000000) scale(0.100000,-0.100000)"
fill="#000000" stroke="none">
<path d="M1238 2115 c-2 -2 -24 -6 -49 -9 -57 -8 -218 -60 -233 -77 -8 -9 -6
-9 11 0 47 24 206 43 313 38 574 -31 928 -601 668 -1077 -187 -342 -631 -499
-1011 -356 -34 13 -71 27 -82 31 -11 4 -6 -2 10 -12 160 -104 344 -151 543
-140 395 21 720 289 797 656 24 117 13 292 -25 395 -129 342 -458 561 -836
555 -57 -1 -104 -3 -106 -4z"/>
<path d="M833 1811 c-49 -23 -77 -61 -70 -96 3 -18 -4 -36 -25 -63 -81 -100
-131 -251 -127 -381 5 -156 66 -296 180 -410 125 -126 279 -190 469 -196 165
-5 331 47 450 141 51 41 46 44 -12 8 -84 -54 -212 -91 -332 -98 -364 -22 -695
263 -699 603 -1 101 7 148 39 228 42 104 62 133 92 133 49 1 87 45 98 114 6
42 -2 44 -63 17z"/>
<path d="M605 1748 c-3 -24 -4 -53 -2 -65 9 -61 87 -87 105 -35 5 15 6 37 1
48 -8 23 -77 94 -90 94 -4 0 -11 -19 -14 -42z"/>
<path d="M476 1633 c3 -15 16 -48 27 -73 17 -35 30 -48 57 -56 46 -15 74 -4
78 30 6 52 -51 102 -136 121 -32 7 -33 6 -26 -22z"/>
<path d="M778 1638 c-8 -7 -18 -21 -21 -31 -8 -22 31 -42 66 -34 30 8 80 54
72 67 -9 14 -98 12 -117 -2z"/>
<path d="M940 1613 l0 -28 257 0 c251 0 256 0 259 -21 3 -17 -6 -23 -57 -39
-103 -30 -278 -122 -393 -207 -14 -10 85 -127 114 -134 96 -23 135 -39 190
-75 74 -50 144 -135 166 -204 19 -57 34 -78 35 -49 0 10 1 125 1 254 0 146 4
237 11 241 29 19 130 -39 149 -85 27 -66 3 -150 -51 -182 -31 -19 -32 -45 -1
-37 32 9 108 92 126 138 19 51 15 139 -9 195 -36 82 -134 160 -200 160 -29 0
-36 20 -14 37 6 6 68 10 136 9 115 -1 124 0 131 19 4 11 6 23 3 28 -2 4 -195
7 -429 7 l-424 0 0 -27z m516 -428 l1 -166 -28 49 c-31 54 -84 112 -142 157
l-39 29 39 20 c40 22 154 74 163 75 3 1 6 -73 6 -164z"/>
<path d="M787 1538 c-43 -9 -61 -23 -71 -55 -5 -16 -1 -25 15 -33 36 -20 81
-3 116 43 17 23 30 43 28 45 -7 8 -52 8 -88 0z"/>
<path d="M412 1451 c43 -81 92 -115 147 -101 36 8 47 32 31 69 -17 41 -59 62
-137 69 l-63 5 22 -42z"/>
<path d="M800 1414 c-59 -20 -90 -40 -103 -67 -22 -45 -9 -71 38 -75 55 -5 91
33 119 126 6 18 4 22 -16 21 -13 0 -30 -3 -38 -5z"/>
<path d="M380 1319 c0 -20 70 -97 100 -109 36 -15 99 -5 107 17 11 28 -11 67
-47 85 -40 20 -160 25 -160 7z"/>
<path d="M811 1250 c-52 -24 -91 -63 -91 -91 0 -88 115 -72 139 19 27 101 25
105 -48 72z"/>
<path d="M432 1161 l-23 -6 23 -31 c35 -47 54 -63 90 -78 38 -15 95 -4 105 20
8 21 -12 60 -40 78 -25 17 -117 27 -155 17z"/>
<path d="M871 1110 c-56 -45 -69 -76 -51 -120 28 -67 123 -10 123 73 -1 65 -4
87 -12 87 -5 0 -32 -18 -60 -40z"/>
<path d="M511 976 l-43 -11 33 -34 c49 -48 102 -70 146 -61 50 12 65 36 44 71
-27 48 -82 59 -180 35z"/>
</g>
</svg>
